<svg xmlns="http://www.w3.org/2000/svg" width="24" height="19" viewBox="0 0 24 23" fill="none">
<path d="M11.5156 12.8515C11.2437 12.8515 11.0158 12.7635 10.8319 12.5876C10.6479 12.4117 10.556 12.1936 10.556 11.9335C10.556 11.6735 10.6479 11.4554 10.8319 11.2795C11.0158 11.1036 11.2437 11.0156 11.5156 11.0156C11.7875 11.0156 12.0154 11.1036 12.1993 11.2795C12.3833 11.4554 12.4752 11.6735 12.4752 11.9335C12.4752 12.1936 12.3833 12.4117 12.1993 12.5876C12.0154 12.7635 11.7875 12.8515 11.5156 12.8515ZM7.67707 12.8515C7.40518 12.8515 7.17726 12.7635 6.99333 12.5876C6.8094 12.4117 6.71744 12.1936 6.71744 11.9335C6.71744 11.6735 6.8094 11.4554 6.99333 11.2795C7.17726 11.1036 7.40518 11.0156 7.67707 11.0156C7.94897 11.0156 8.17688 11.1036 8.36081 11.2795C8.54474 11.4554 8.63671 11.6735 8.63671 11.9335C8.63671 12.1936 8.54474 12.4117 8.36081 12.5876C8.17688 12.7635 7.94897 12.8515 7.67707 12.8515ZM15.3541 12.8515C15.0822 12.8515 14.8543 12.7635 14.6704 12.5876C14.4865 12.4117 14.3945 12.1936 14.3945 11.9335C14.3945 11.6735 14.4865 11.4554 14.6704 11.2795C14.8543 11.1036 15.0822 11.0156 15.3541 11.0156C15.626 11.0156 15.854 11.1036 16.0379 11.2795C16.2218 11.4554 16.3138 11.6735 16.3138 11.9335C16.3138 12.1936 16.2218 12.4117 16.0379 12.5876C15.854 12.7635 15.626 12.8515 15.3541 12.8515ZM11.5156 16.5234C11.2437 16.5234 11.0158 16.4354 10.8319 16.2595C10.6479 16.0835 10.556 15.8655 10.556 15.6054C10.556 15.3453 10.6479 15.1273 10.8319 14.9514C11.0158 14.7754 11.2437 14.6874 11.5156 14.6874C11.7875 14.6874 12.0154 14.7754 12.1993 14.9514C12.3833 15.1273 12.4752 15.3453 12.4752 15.6054C12.4752 15.8655 12.3833 16.0835 12.1993 16.2595C12.0154 16.4354 11.7875 16.5234 11.5156 16.5234ZM7.67707 16.5234C7.40518 16.5234 7.17726 16.4354 6.99333 16.2595C6.8094 16.0835 6.71744 15.8655 6.71744 15.6054C6.71744 15.3453 6.8094 15.1273 6.99333 14.9514C7.17726 14.7754 7.40518 14.6874 7.67707 14.6874C7.94897 14.6874 8.17688 14.7754 8.36081 14.9514C8.54474 15.1273 8.63671 15.3453 8.63671 15.6054C8.63671 15.8655 8.54474 16.0835 8.36081 16.2595C8.17688 16.4354 7.94897 16.5234 7.67707 16.5234ZM15.3541 16.5234C15.0822 16.5234 14.8543 16.4354 14.6704 16.2595C14.4865 16.0835 14.3945 15.8655 14.3945 15.6054C14.3945 15.3453 14.4865 15.1273 14.6704 14.9514C14.8543 14.7754 15.0822 14.6874 15.3541 14.6874C15.626 14.6874 15.854 14.7754 16.0379 14.9514C16.2218 15.1273 16.3138 15.3453 16.3138 15.6054C16.3138 15.8655 16.2218 16.0835 16.0379 16.2595C15.854 16.4354 15.626 16.5234 15.3541 16.5234ZM4.79817 20.1952C4.27037 20.1952 3.81855 20.0155 3.44269 19.6559C3.06683 19.2964 2.87891 18.8642 2.87891 18.3593V5.5078C2.87891 5.00292 3.06683 4.57071 3.44269 4.21117C3.81855 3.85163 4.27037 3.67187 4.79817 3.67187H5.75781V1.83594H7.67707V3.67187H15.3541V1.83594H17.2734V3.67187H18.233C18.7608 3.67187 19.2127 3.85163 19.5885 4.21117C19.9644 4.57071 20.1523 5.00292 20.1523 5.5078V18.3593C20.1523 18.8642 19.9644 19.2964 19.5885 19.6559C19.2127 20.0155 18.7608 20.1952 18.233 20.1952H4.79817ZM4.79817 18.3593H18.233V9.17965H4.79817V18.3593Z" fill="#151515"/>
</svg>