<svg width="131" height="173" viewBox="0 0 131 173" fill="none" xmlns="http://www.w3.org/2000/svg">
<path fill-rule="evenodd" clip-rule="evenodd" d="M125.905 137.627L125.905 171.925L125.905 172.359L126.339 172.359L129.812 172.359L130.246 172.359L130.246 171.925L130.246 137.627L130.246 137.192L130.246 133.719L130.246 133.285L129.812 133.285L69.4646 133.285L69.4646 0.434151L69.4646 -2.65684e-06L69.0305 -2.67582e-06L65.5572 -2.82764e-06L65.1231 -2.84662e-06L65.1231 0.434151L65.1231 133.285L0.434214 133.285L5.52091e-05 133.285L5.51901e-05 133.719L5.50383e-05 137.192L5.50193e-05 137.627L0.434213 137.627L125.905 137.627Z" fill="white"/>
</svg>
