<svg width="95" height="211" viewBox="0 0 95 211" fill="none" xmlns="http://www.w3.org/2000/svg">
<path fill-rule="evenodd" clip-rule="evenodd" d="M94.5592 76.4245L34.5422 76.4245L34.5422 0.431774L34.5422 -2.6423e-06L34.1104 -2.66117e-06L30.6562 -2.81216e-06L30.2244 -2.83104e-06L30.2244 0.431774L30.2244 132.556L0.431826 132.556L4.76116e-05 132.556L4.75927e-05 132.987L4.74417e-05 136.441L4.74228e-05 136.873L0.431825 136.873L30.2244 136.873L30.2244 209.844L30.2244 210.275L30.6562 210.275L34.1104 210.275L34.5422 210.275L34.5422 209.844L34.5422 80.7423L94.5592 80.7423L94.991 80.7423L94.991 80.3105L94.991 76.8563L94.991 76.4245L94.5592 76.4245Z" fill="url(#paint0_linear_141_1114)"/>
<defs>
<linearGradient id="paint0_linear_141_1114" x1="32.8151" y1="-3.67011" x2="35.4057" y2="240.5" gradientUnits="userSpaceOnUse">
<stop stop-color="white"/>
<stop offset="1" stop-color="white" stop-opacity="0"/>
</linearGradient>
</defs>
</svg>
